# xmcd
#
# Track frame offsets:
#	150
#	47148
#	80445
#	113223
#	162647
#	195647
#	232687
#	266606
#	308610
#
# Disc length: 4370 seconds
#
# Revision: 1
# Processed by: cddbd v1.5.2PL0 Copyright (c) Steve Scherf et al.
# Submitted via: audiograbber 1.83.01
#
DISCID=6d111009
DTITLE=Frauke Scheunemann - Hochzeitsküsse CD2-3
DYEAR=2013
DGENRE=Hörbuch
TTITLE0=201
TTITLE1=202
TTITLE2=203
TTITLE3=204
TTITLE4=205
TTITLE5=206
TTITLE6=207
TTITLE7=208
TTITLE8=209
EXTD=
EXTT0=
EXTT1=
EXTT2=
EXTT3=
EXTT4=
EXTT5=
EXTT6=
EXTT7=
EXTT8=
PLAYORDER=
